<svg width="370" height="370" viewBox="0 0 370 370" fill="none" xmlns="http://www.w3.org/2000/svg">
<path d="M370 370H0V0H370V370ZM119.593 187.222C118.499 187.216 117.244 187.399 115.987 187.64C112.115 188.381 109.169 190.924 107.229 193.154C105.779 194.821 105.234 196.946 104.894 199.429C104.536 202.032 104.475 205.664 104.99 208.734C105.527 211.928 106.675 214.345 108.033 216.375C110.676 220.326 114.272 222.462 116.993 223.546C118.192 224.023 119.177 224.232 120.344 224.032C122.4 223.679 124.014 222.149 125.047 220.99L125.158 220.866L125.253 220.729C125.915 219.767 126.336 218.65 126.505 217.623C126.67 216.618 126.566 215.603 126.551 215.149C126.501 213.678 125.268 212.526 123.797 212.576C122.326 212.626 121.174 213.859 121.224 215.33C121.258 216.347 121.297 216.441 121.245 216.757C121.203 217.012 121.092 217.325 120.937 217.588C120.571 217.984 120.24 218.288 119.95 218.498C119.792 218.613 119.666 218.685 119.574 218.729C119.529 218.75 119.495 218.762 119.474 218.77C119.402 218.752 119.247 218.707 118.966 218.595C116.936 217.786 114.345 216.224 112.464 213.411C111.455 211.902 110.639 210.184 110.247 207.852C109.835 205.396 109.878 202.314 110.175 200.154C110.488 197.875 110.874 197.085 111.25 196.652C112.85 194.812 114.815 193.291 116.989 192.875C118.094 192.664 118.904 192.561 119.46 192.552C119.542 192.781 119.63 193.063 119.716 193.39C119.965 194.334 120.152 195.477 120.178 196.526C120.214 197.998 121.436 199.162 122.907 199.126C124.379 199.09 125.543 197.868 125.507 196.396C125.469 194.868 125.208 193.309 124.871 192.031C124.702 191.389 124.502 190.775 124.281 190.241C124.105 189.814 123.82 189.201 123.384 188.691L123.295 188.591L123.187 188.479C122.054 187.348 120.493 187.227 119.593 187.222ZM139.09 190.004C138.328 189.698 137.454 189.615 136.569 189.866C135.663 190.124 134.96 190.671 134.44 191.264C132.73 193.214 131.26 196.405 130.569 200.298C130.222 202.256 130.051 204.17 130.146 207C130.157 207.315 130.172 207.644 130.188 207.982L128.947 208.519C127.596 209.102 126.973 210.67 127.556 212.021C128.07 213.213 129.349 213.836 130.57 213.568C130.628 214.342 130.681 215.064 130.719 215.688C130.864 218.08 130.842 219.473 130.818 220.92C130.795 222.392 131.968 223.604 133.439 223.628C134.911 223.652 136.123 222.478 136.147 221.007C136.172 219.51 136.197 217.958 136.039 215.363C135.964 214.126 135.855 212.76 135.752 211.389L144.005 207.829C145.147 210.026 146.204 212.104 146.938 213.627C147.319 214.42 147.593 215.022 147.785 215.479C147.582 215.91 147.491 216.401 147.548 216.909C147.711 218.372 149.028 219.425 150.491 219.263C150.568 219.254 151.624 219.199 152.459 218.417C153.516 217.427 153.459 216.147 153.379 215.579C153.294 214.973 153.072 214.335 152.831 213.733C152.573 213.09 152.212 212.294 151.74 211.314C151.02 209.819 150.01 207.827 148.913 205.713L154.92 203.123C156.271 202.54 156.894 200.972 156.312 199.62C155.729 198.269 154.16 197.646 152.809 198.229L146.423 200.981C145.455 199.166 144.537 197.467 143.799 196.134C142.702 194.152 141.954 192.876 141.386 192.052C140.844 191.266 140.243 190.546 139.33 190.109L139.24 190.068L139.09 190.004ZM166.387 173.181C164.932 173.221 163.777 173.71 162.945 174.289L162.783 174.406C162.323 174.751 161.805 175.243 161.434 176.038C161.12 176.711 160.99 177.44 160.909 178.119C160.735 179.59 160.694 181.807 161.1 187.989C161.508 194.207 162.358 204.307 162.818 209.627C163.278 214.937 163.354 215.55 163.435 216.17C163.624 217.63 164.961 218.66 166.421 218.471C167.881 218.281 168.91 216.944 168.721 215.484C168.658 214.997 168.591 214.501 168.129 209.168C167.913 206.67 167.613 203.132 167.312 199.445C167.392 199.542 167.476 199.638 167.564 199.732C168.869 201.118 170.962 201.588 172.956 201.431C173.387 201.397 175.187 201.431 176.932 200.536C178.306 202.762 179.731 205.114 180.793 206.785C181.648 208.131 182.264 209.025 182.783 209.615C183.062 209.933 183.375 210.235 183.753 210.49C184.152 210.76 184.508 210.897 184.724 210.975L184.819 211.009L184.919 211.036C186.629 211.505 189.038 211.438 191.213 211.15L191.247 211.146L191.281 211.141C191.69 211.076 192.272 210.978 192.869 210.707C193.499 210.421 193.961 210.03 194.329 209.687C195.405 208.682 195.464 206.996 194.46 205.92C193.456 204.844 191.77 204.785 190.693 205.789C190.67 205.811 190.649 205.829 190.631 205.845C190.589 205.852 190.539 205.861 190.478 205.871C188.801 206.09 187.446 206.082 186.679 205.966C186.441 205.668 186.028 205.084 185.292 203.926C184.114 202.072 182.144 198.807 180.438 196.082C181.569 193.371 182.359 190.176 180.836 186.957C179.918 185.016 178.15 181.445 176.069 179.119C174.507 177.373 172.961 175.918 171.436 174.892C169.931 173.88 168.217 173.13 166.387 173.181ZM76.6748 179.363C75.9395 178.972 75.2062 178.934 74.6387 178.997C73.7397 179.097 72.7249 179.534 71.8232 179.929C69.782 180.823 66.0674 182.582 63.6836 184.213C62.4083 185.085 61.3917 185.995 60.5127 187.318C59.6892 188.558 59.0612 190.053 58.3682 191.927C57.9293 193.114 57.4396 194.525 56.9414 196.003C55.2989 196.228 53.6359 196.455 51.9736 196.683C50.5154 196.883 49.4953 198.227 49.6953 199.686C49.8954 201.144 51.24 202.164 52.6982 201.964C53.4986 201.854 54.2989 201.744 55.0967 201.635C54.6837 202.924 54.3104 204.101 54.0127 205.044C52.9765 208.327 52.8089 208.888 52.6406 209.453C52.2207 210.864 53.0247 212.349 54.4355 212.769C55.8461 213.188 57.33 212.385 57.75 210.975C57.9052 210.453 58.0611 209.926 59.0957 206.648C59.5799 205.115 60.2473 203.012 60.957 200.834C66.9842 200.01 72.5152 199.258 76.4551 198.744C76.5443 199.391 76.6297 200.03 76.7061 200.655C77.2462 205.078 77.3959 208.635 77.418 210.62C77.4249 211.243 77.4172 211.649 77.4062 211.905C77.211 212.311 77.1158 212.772 77.1514 213.254C77.26 214.722 78.5379 215.824 80.0059 215.716C81.2369 215.625 81.976 214.811 82.3018 214.179C82.553 213.691 82.63 213.206 82.6641 212.955C82.7415 212.385 82.7595 211.595 82.748 210.561C82.724 208.399 82.5634 204.645 81.9971 200.009C81.9197 199.375 81.8339 198.729 81.7441 198.076C83.9463 197.808 85.3087 197.651 86.875 197.427C88.3319 197.218 89.3436 195.867 89.1348 194.41C88.9258 192.953 87.5751 191.942 86.1182 192.15C84.5085 192.381 83.2322 192.525 80.9365 192.805C80.5531 190.517 80.1588 188.389 79.8291 186.743C79.4965 185.083 79.2188 183.853 78.96 182.937C78.7116 182.057 78.4237 181.251 77.9824 180.584C77.7705 180.264 77.3684 179.732 76.6748 179.363ZM212.283 167.192C211.583 165.898 209.964 165.417 208.67 166.117C208.654 166.123 208.282 166.282 207.28 166.565C206.331 166.834 204.983 167.17 203.19 167.557C202.33 167.742 201.383 167.867 200.219 168.021C199.087 168.171 197.793 168.343 196.404 168.621C195.175 168.867 193.112 169.291 191.551 170.688C189.742 172.307 189.113 174.684 189.534 177.605C189.928 180.334 191.309 183.924 192.773 187.291C194.264 190.72 196.008 194.281 197.251 196.933C199.743 202.248 200.389 204.252 200.932 205.69C201.061 206.032 201.26 206.558 201.551 207.044C201.87 207.576 202.38 208.205 203.209 208.624C204.77 209.413 206.49 208.972 207.786 208.529C210.566 207.58 215.624 204.944 218.499 203.56C221.448 202.14 222.575 201.785 223.757 201.405C225.158 200.955 225.929 199.454 225.479 198.053C225.029 196.651 223.528 195.88 222.127 196.33C220.748 196.773 219.388 197.216 216.187 198.758C212.91 200.335 208.441 202.673 206.064 203.484C205.98 203.513 205.901 203.539 205.827 203.562C205.296 202.129 204.524 199.887 202.077 194.669C201.739 193.949 201.376 193.186 200.999 192.394C202.001 192.18 203.225 191.893 204.668 191.519L204.805 191.483L204.937 191.434C210.276 189.425 212.23 188.716 214.058 188.212C214.725 188.045 215.671 187.86 216.578 187.496C217.944 186.947 218.606 185.395 218.058 184.029C217.509 182.664 215.958 182.002 214.592 182.55C214.123 182.738 213.829 182.772 212.737 183.047L212.71 183.054L212.682 183.062C210.575 183.64 208.395 184.437 203.196 186.393C201.103 186.933 199.606 187.253 198.67 187.423C198.328 186.672 197.988 185.917 197.661 185.165C196.183 181.765 195.089 178.778 194.81 176.844C194.558 175.103 195.015 174.742 195.105 174.661C195.444 174.358 196.095 174.119 197.449 173.849C198.644 173.61 199.777 173.457 200.919 173.306C202.028 173.159 203.202 173.006 204.313 172.767C206.18 172.364 207.644 172.002 208.732 171.694C209.731 171.412 210.633 171.116 211.208 170.805C212.502 170.104 212.984 168.487 212.283 167.192ZM137.592 196.014C137.968 196.638 138.465 197.505 139.135 198.715C139.809 199.934 140.635 201.461 141.511 203.1L135.453 205.713C135.442 203.859 135.583 202.557 135.818 201.229C136.218 198.977 136.905 197.219 137.592 196.014ZM240.615 160.58C240.205 159.166 238.727 158.352 237.313 158.762C236.423 159.02 235.532 159.279 232.669 160.054C231.241 160.44 229.275 160.968 227.396 161.537C225.574 162.09 223.623 162.744 222.317 163.41C221.671 163.74 220.877 164.222 220.298 164.991C219.606 165.91 219.426 166.949 219.565 167.918C219.682 168.726 220.02 169.467 220.29 170.014C220.569 170.578 220.96 171.281 221.32 171.955C222.871 174.855 225.302 179.844 227.166 184.085C229.023 188.31 230.214 191.578 230.939 194.126C231.657 196.646 231.893 198.404 232.013 199.491C232.024 199.591 232.074 200.336 232.342 200.966C232.517 201.377 232.844 201.914 233.446 202.326C234.051 202.74 234.688 202.86 235.188 202.867C236.033 202.88 236.831 202.572 237.364 202.345C237.993 202.077 238.761 201.688 239.687 201.188C243.371 199.2 250.727 194.805 254.571 192.561C256.522 191.422 257.528 190.862 258.072 190.579C258.3 190.461 258.412 190.41 258.456 190.391C259.875 190.02 260.729 188.572 260.364 187.15C259.998 185.725 258.546 184.866 257.12 185.231C256.341 185.431 255.64 185.765 251.884 187.957C247.918 190.272 240.735 194.566 237.155 196.497C237.096 196.529 237.037 196.56 236.979 196.591C236.788 195.511 236.503 194.205 236.065 192.666C235.495 190.662 234.687 188.338 233.594 185.618C234.019 185.473 234.553 185.291 235.232 185.061C237.83 184.179 242.596 182.562 245.748 181.423C248.89 180.287 250.392 179.634 252.065 178.99C253.439 178.462 254.124 176.919 253.596 175.545C253.067 174.171 251.525 173.486 250.151 174.015C248.261 174.742 247.038 175.288 243.937 176.409C240.845 177.526 236.135 179.124 233.519 180.013C232.617 180.319 231.971 180.539 231.493 180.702C229.673 176.652 227.491 172.192 226.021 169.441C225.674 168.794 225.419 168.333 225.213 167.937C226.091 167.554 227.409 167.103 228.943 166.638C230.729 166.096 232.612 165.592 234.062 165.199C236.953 164.417 237.875 164.149 238.797 163.882C240.211 163.472 241.025 161.994 240.615 160.58ZM171.993 193.367C172.041 193.399 172.16 193.492 172.4 193.765C172.732 194.142 173.236 194.795 174.021 195.96C173.622 196.053 173.199 196.064 172.538 196.116C172.043 196.155 171.696 196.101 171.495 196.043C171.452 196.03 171.418 196.019 171.394 196.009C171.352 195.942 171.302 195.832 171.259 195.652C171.191 195.374 171.17 195.064 171.157 194.679C171.144 194.284 171.281 193.869 171.562 193.441C171.616 193.36 171.671 193.284 171.727 193.212L171.993 193.367ZM73.9463 184.818C74.124 185.51 74.3355 186.462 74.6016 187.79C74.9123 189.341 75.2814 191.333 75.6426 193.475C72.2811 193.913 67.7982 194.519 62.8555 195.193C63.0322 194.693 63.2048 194.217 63.3682 193.775C64.0485 191.936 64.4993 190.95 64.9521 190.269C65.3493 189.671 65.8068 189.219 66.6934 188.612C68.629 187.288 71.9342 185.701 73.9463 184.818ZM274.011 154.972C271.898 153.794 269.055 152.584 266.309 153.05C265.588 153.172 264.846 153.442 264.162 153.965C263.497 154.474 263.029 155.114 262.681 155.768C261.677 157.65 260.532 159.798 259.706 162.024C258.875 164.263 258.296 166.758 258.546 169.368C258.665 170.613 259.079 172.209 259.586 173.851C260.108 175.541 260.786 177.463 261.52 179.427C262.984 183.351 264.718 187.579 265.951 190.647C266.5 192.013 268.052 192.676 269.418 192.127C270.784 191.578 271.446 190.026 270.897 188.66C269.643 185.538 267.947 181.406 266.513 177.563C266.416 177.304 266.32 177.045 266.227 176.79C266.702 176.828 267.288 176.866 267.961 176.904C270.298 177.037 274.055 177.198 279.026 177.403C283.18 177.639 285.492 177.928 287.86 178.547C289.284 178.919 290.741 178.067 291.113 176.643C291.485 175.219 290.632 173.762 289.208 173.39C286.327 172.637 283.599 172.323 279.312 172.08L279.271 172.078L277.506 172.005C277.822 171.645 278.123 171.251 278.405 170.818C279.367 169.344 280.537 167.415 281.154 165.541C281.718 163.832 282.205 160.867 279.736 158.925C278.336 157.823 276.25 156.22 274.011 154.972ZM166.535 178.509C166.811 178.501 167.423 178.616 168.46 179.313C169.476 179.997 170.687 181.097 172.097 182.673C173.591 184.343 175.069 187.231 176.018 189.236C176.151 189.518 176.244 189.811 176.297 190.125C175.72 189.488 175.217 189.081 174.679 188.763C174.265 188.518 173.531 188.079 172.747 187.829C171.98 187.584 170.565 187.334 169.244 188.25L169.116 188.343C168.593 188.738 167.79 189.476 167.108 190.513C166.959 190.74 166.812 190.988 166.673 191.256C166.577 189.959 166.491 188.737 166.419 187.64C166.013 181.45 166.093 179.678 166.203 178.747C166.212 178.674 166.22 178.61 166.229 178.554C166.31 178.53 166.411 178.512 166.535 178.509ZM309.284 143.736C307.569 143.225 301.793 141.456 296.008 142.364C294.133 142.659 293.044 143.741 292.395 144.502L292.271 144.649C291.53 145.543 291.257 146.613 291.161 147.499C291.062 148.415 291.121 149.398 291.268 150.373C291.561 152.327 292.257 154.609 293.216 156.967C294.278 159.579 296.347 161.089 298.594 161.883C300.768 162.651 303.219 162.801 305.465 162.722C307.74 162.641 310.008 162.315 311.892 161.998C312.9 161.828 313.739 161.674 314.432 161.551C314.414 161.784 314.387 162.025 314.352 162.263C313.904 165.283 312.249 167.965 309.916 170.136C307.299 172.571 304.957 173.2 303.288 173.282C302.753 173.309 302.266 173.28 301.837 173.224C301.92 173.132 302.011 173.04 302.11 172.952C302.546 172.563 302.896 172.413 305.046 171.162C306.318 170.422 306.749 168.79 306.009 167.518C305.268 166.246 303.636 165.814 302.364 166.555C300.684 167.532 299.53 168.111 298.562 168.975C297.615 169.819 296.643 171.068 296.201 172.469C296.001 173.104 295.858 173.895 295.921 174.688C295.969 175.287 296.253 177.017 298.019 177.699C298.619 177.931 300.691 178.748 303.552 178.606C306.469 178.462 310.004 177.334 313.547 174.038C316.535 171.257 318.958 167.539 319.624 163.044C319.775 162.026 319.882 160.638 319.647 159.408C319.533 158.808 319.283 157.941 318.643 157.203C317.902 156.35 316.829 155.894 315.655 155.981L315.542 155.991C314.474 156.102 312.687 156.459 311.008 156.741C309.198 157.045 307.201 157.326 305.276 157.395C303.322 157.464 301.636 157.304 300.37 156.856C299.177 156.434 298.504 155.822 298.153 154.96C297.289 152.834 296.749 150.979 296.539 149.582C296.434 148.882 296.426 148.387 296.46 148.075C296.467 148.01 296.475 147.96 296.482 147.925C296.627 147.759 296.7 147.694 296.744 147.662C296.761 147.65 296.769 147.646 296.771 147.646C296.772 147.645 296.79 147.637 296.835 147.63C301.288 146.931 305.988 148.315 307.76 148.844C309.17 149.264 310.654 148.463 311.075 147.053C311.496 145.642 310.694 144.157 309.284 143.736ZM267.38 158.283C268.219 158.221 269.586 158.607 271.415 159.627C273.188 160.616 274.924 161.926 276.288 162.996C276.284 163.138 276.245 163.408 276.092 163.872C275.71 165.031 274.885 166.458 273.94 167.906C272.581 169.991 270.543 170.266 267.128 170.892C266.729 170.965 266.355 171.049 266.043 171.117C265.733 171.185 265.472 171.241 265.209 171.287C265.083 171.304 264.888 171.337 264.686 171.396C264.662 171.402 264.571 171.427 264.44 171.479C264.098 170.289 263.904 169.408 263.852 168.859C263.706 167.345 264.027 165.702 264.703 163.879C265.383 162.047 266.351 160.214 267.38 158.283Z" fill="#FF1111"/>
</svg>
