<svg width="370" height="370" viewBox="0 0 370 370" fill="none" xmlns="http://www.w3.org/2000/svg">
<path d="M370 370H0V0H370V370ZM146.902 91.5586C142.724 91.5589 139.337 94.9461 139.337 99.124C139.337 100.343 139.338 101.566 139.507 124.473C139.676 147.426 140.013 191.983 139.766 218.616C139.519 245.109 138.685 252.345 138.267 257.007L138.245 257.243L138.239 257.481C138.103 262.591 138.121 266.094 138.165 268.575C138.167 268.692 138.171 268.804 138.173 268.914C137.837 269.943 137.715 271.06 137.859 272.205C137.95 272.926 138.071 273.774 138.225 274.473C138.266 274.662 138.333 274.944 138.43 275.261C138.478 275.421 138.715 276.231 139.252 277.113C139.46 277.456 140.251 278.742 141.858 279.702C142.78 280.253 144.123 280.783 145.781 280.775C147.478 280.768 148.912 280.2 149.971 279.49C151.783 278.275 152.511 276.655 152.688 276.256C152.964 275.637 153.099 275.111 153.16 274.851L153.319 274.167L153.352 273.466C153.408 272.212 153.328 270.294 153.293 268.308C153.253 266.069 153.235 262.858 153.358 258.113C153.816 253.076 154.649 245.25 154.896 218.757C155.145 191.967 154.806 147.259 154.637 124.361C154.468 101.418 154.468 100.272 154.468 99.124C154.468 94.9459 151.08 91.5586 146.902 91.5586ZM53.3193 97.2031C50.1077 96.1677 47.3624 97.7011 46.6143 98.1904C45.5851 98.8636 44.8542 99.6814 44.6455 99.9111C44.3491 100.237 43.9963 100.657 43.8174 100.866C41.2497 103.866 41.4409 108.296 44.1494 111.066L44.1582 111.256L44.1982 111.568C45.0048 117.759 46.8745 120.118 46.4346 132.785C46.0921 142.645 45.0648 162.003 44.7324 175.8C44.3943 189.836 44.7379 198.499 44.9053 206.389C45.0625 213.802 44.9607 221.797 45.1689 226.001C45.4543 231.763 46.5239 239.369 45.5293 250.307C45.1642 254.321 44.608 257.4 44.1494 260.685C43.7401 263.616 43.3146 267.237 44.0381 270.75C44.2306 271.685 44.6655 273.269 45.7188 274.809C46.8492 276.461 49.374 278.891 53.376 278.735C55.5218 278.652 57.1869 277.76 57.832 277.402C58.6837 276.93 59.4856 276.367 60.1221 275.899C61.123 275.164 63.1486 273.559 64.2109 272.758C67.199 270.503 69.9583 268.794 72.4443 268.195C73.9814 267.825 75.6317 266.997 76.6357 266.49C77.8872 265.858 79.4738 265.008 81.1797 264.105C84.6774 262.256 89.2385 259.885 94.8125 257.389C98.4253 255.771 100.899 254.786 102.56 254.236C103.31 253.988 103.788 253.866 104.055 253.81C104.152 253.814 104.261 253.82 104.379 253.821C104.99 253.827 105.926 253.768 106.997 253.409C109.398 252.604 110.759 250.913 111.44 249.723C112.451 247.956 112.764 245.86 112.94 244.609C113.394 241.396 113.832 235.374 114.347 224.022C115.383 201.173 116.745 156.517 116.372 134.039C116.191 123.116 115.628 116.389 114.253 112.236C113.475 109.885 112.171 107.488 109.765 105.78C107.683 104.303 105.297 103.869 105.023 103.802C103.63 103.46 102.091 102.978 99.708 102.287C97.4595 101.635 94.7788 100.899 91.6738 100.245C85.7086 98.9897 78.3397 97.8701 71.5215 97.623C62.7648 97.3057 56.8011 97.2242 53.3193 97.2031ZM283.17 89C269.268 89.0104 256.789 89.5235 250.115 89.7764C243.433 90.0295 242.54 90.0244 241.68 90.0244C237.502 90.0245 234.114 93.4117 234.114 97.5898C234.114 98.026 234.153 98.4532 234.224 98.8691C234.153 99.2853 234.114 99.713 234.114 100.149C234.114 101.896 234.177 103.53 235.068 108.718C235.911 113.622 237.577 122.098 240.453 145.288C243.343 168.582 247.39 206.361 249.472 230.083C251.02 247.722 251.394 256.785 251.427 261.5C250.63 262.964 250.309 264.699 250.63 266.466C250.71 266.909 250.819 267.512 250.933 268.041C250.989 268.306 251.07 268.657 251.173 269.021C251.228 269.217 251.463 270.078 251.974 270.987C252.139 271.282 252.959 272.777 254.748 273.844C255.032 274.013 255.353 274.177 255.706 274.325C256.949 275.222 258.475 275.752 260.125 275.752C261.762 275.752 263.332 275.603 272.918 273.952C282.74 272.261 301.596 268.864 321.373 265.393C325.488 264.67 328.239 260.748 327.517 256.633C326.794 252.518 322.873 249.767 318.758 250.489C298.842 253.985 280.166 257.351 270.351 259.041C268.874 259.295 267.611 259.507 266.532 259.687C266.424 254.04 265.943 244.708 264.544 228.761C263.513 217.009 262.006 201.866 260.395 186.72C262.067 186.49 264.505 186.113 268.653 185.407C276.271 184.111 289.257 181.778 296.723 180.56C304.064 179.361 304.942 179.438 305.72 179.438C309.898 179.438 313.285 176.052 313.285 171.874C313.285 167.696 309.898 164.309 305.72 164.309C303.71 164.309 301.881 164.387 294.286 165.627C286.813 166.847 273.425 169.247 266.114 170.491C262.452 171.115 260.238 171.463 258.759 171.673C257.609 161.314 256.47 151.508 255.468 143.425C252.545 119.863 250.829 111.094 249.98 106.156C249.904 105.711 249.838 105.303 249.776 104.928C250.068 104.917 250.372 104.907 250.688 104.896C257.401 104.641 269.605 104.14 283.183 104.13C287.36 104.126 290.744 100.737 290.741 96.5586C290.738 92.3807 287.348 88.9969 283.17 89ZM186.634 94.9023C183.268 94.5432 179.41 94.0887 175.056 95.5137C173.083 96.1591 171.102 97.1681 169.496 98.6406L169.181 98.9414C166.491 101.597 166.09 104.887 166.104 106.948C166.119 108.931 166.533 111.037 166.884 112.714C167.658 116.413 168.707 120.6 169.258 126.316C169.59 129.767 169.531 134.95 169.339 140.615C169.157 145.984 168.847 151.915 168.801 155.925C168.708 164.058 168.895 165.015 169.4 174.238C169.902 183.393 170.759 201.534 171.53 214.946C172.308 228.477 172.99 237.009 173.431 241.956C174.146 249.99 174.562 253.477 175.159 258.911C175.19 259.193 175.215 259.558 175.247 260.139C175.276 260.655 175.313 261.379 175.375 262.099C175.487 263.411 175.739 265.667 176.754 267.847C179.151 272.996 183.931 274.724 187.754 275.037C191.875 275.374 195.991 274.233 199.449 273.015C202.955 271.78 206.964 270.008 210.711 268.451C223.868 262.985 224.378 264.617 229.204 263.458C229.355 263.446 229.581 263.43 229.787 263.409C230.001 263.388 230.567 263.33 231.198 263.179C231.507 263.105 232.133 262.94 232.852 262.594C233.426 262.317 235.064 261.459 236.193 259.497C237.633 256.996 237.312 254.45 236.654 252.82C236.099 251.445 235.283 250.575 234.941 250.231C234.213 249.499 233.47 249.046 233.245 248.908C232.663 248.552 231.983 248.22 231.745 248.101C229.024 246.74 225.876 247.174 223.644 248.952C222.817 249.051 221.806 249.19 220.613 249.415C217.035 250.089 212.2 251.449 204.906 254.479C200.652 256.247 197.403 257.694 194.421 258.744C192.612 259.382 191.311 259.713 190.387 259.863C190.377 259.688 190.365 259.5 190.354 259.293C190.322 258.735 190.28 257.994 190.199 257.257C189.598 251.789 189.2 248.464 188.501 240.614C188.076 235.837 187.405 227.463 186.636 214.078C185.86 200.574 185.027 182.874 184.509 173.411C183.994 164.017 183.845 163.621 183.931 156.099C183.974 152.281 184.261 147.009 184.461 141.129C184.651 135.545 184.758 129.43 184.318 124.865C183.669 118.133 182.381 112.896 181.705 109.674C182.44 109.695 183.47 109.78 185.028 109.946C188.61 110.328 193.749 110.928 201.758 110.787C206.762 110.699 210.685 110.57 213.487 110.462C214.884 110.408 216.006 110.36 216.817 110.326C217.229 110.309 217.547 110.295 217.79 110.286C218.004 110.279 218.097 110.277 218.116 110.276C222.294 110.276 225.682 106.889 225.682 102.711C225.681 98.5331 222.294 95.1457 218.116 95.1455C217.418 95.1455 215.4 95.2467 212.904 95.3428C210.185 95.4475 206.369 95.5732 201.491 95.6592C194.467 95.783 190.101 95.2723 186.634 94.9023ZM59.7676 112.422C62.7813 112.483 66.5015 112.581 70.9736 112.743C76.681 112.95 83.1558 113.914 88.5586 115.051C91.1372 115.593 93.4118 116.215 95.4951 116.819C97.0178 117.261 98.6767 117.765 100.187 118.176C100.636 120.431 101.09 125.052 101.243 134.29C101.608 156.276 100.265 200.545 99.2314 223.338C98.8573 231.588 98.5356 236.648 98.2598 239.727C98.1062 239.776 97.9547 239.823 97.8076 239.872C95.4254 240.66 92.4088 241.886 88.627 243.58C82.6025 246.278 77.7015 248.829 74.1064 250.73C72.2663 251.704 70.8983 252.437 69.8164 252.983C68.9834 253.404 68.6473 253.539 68.6299 253.554C65.4001 254.371 62.4485 255.823 59.9287 257.356C60.1709 255.619 60.4133 253.703 60.5977 251.676C61.72 239.333 60.5082 229.834 60.2812 225.253C60.0781 221.15 60.2141 214.597 60.0332 206.067C59.8624 198.014 59.5306 189.771 59.8584 176.164C60.192 162.316 61.1921 143.805 61.5566 133.311C61.9316 122.514 60.5983 116.166 59.7676 112.422Z" fill="#AAFF11"/>
</svg>
