<svg width="370" height="370" viewBox="0 0 370 370" fill="none" xmlns="http://www.w3.org/2000/svg">
<path d="M370 370H0V0H370V370ZM122.991 200.046C122.554 197.212 119.903 195.268 117.069 195.705C105.568 197.478 95.9106 199.205 90.9062 200.053C85.8007 200.917 85.6768 200.838 85.6709 200.836C82.8038 200.836 80.4787 203.161 80.4785 206.028C80.4785 208.896 82.8037 211.22 85.6709 211.22C86.7116 211.22 87.6844 211.13 92.6406 210.291C93.8916 210.079 95.4055 209.816 97.1455 209.516C97.148 209.528 97.1508 209.541 97.1533 209.554C97.409 210.818 97.726 212.343 98.2002 214.694C99.1158 219.235 100.471 226.147 102.228 235.954C104.282 247.427 104.976 263.126 105.347 272.743C105.869 286.276 102.413 294.377 100.4 297.965C100.099 297.838 99.7394 297.679 99.3184 297.477C98.0202 296.853 96.4065 295.969 94.5059 294.84C90.8409 292.662 86.3352 289.702 81.3389 286.257C76.8788 280.929 76.2863 275.227 75.8613 271.587L75.3857 267.514L71.3135 267.032L71.1348 267.015C69.3058 266.86 67.8961 267.681 67.0986 268.444C66.3903 269.122 66.0522 269.831 65.9219 270.127C65.6466 270.753 65.5559 271.299 65.5312 271.446C65.4627 271.856 65.4446 272.233 65.4375 272.4C65.4205 272.8 65.4219 273.285 65.4219 273.604C65.4219 274.415 65.6082 275.183 65.9395 275.866C66.6249 280.355 68.3265 287.224 73.9502 293.591L74.3682 294.064L74.8887 294.424C80.1833 298.085 85.107 301.333 89.2012 303.767C91.2458 304.982 93.1462 306.031 94.8213 306.836C96.4057 307.597 98.1292 308.309 99.7236 308.604C100.557 308.758 101.873 308.955 103.268 308.712C104.99 308.411 106.594 307.485 107.691 305.871C109.215 303.63 116.522 293.054 115.723 272.343C115.357 262.859 114.653 246.428 112.449 234.123C110.678 224.232 109.308 217.247 108.38 212.643C107.969 210.606 107.611 208.87 107.389 207.775C110.832 207.203 114.623 206.589 118.651 205.968C121.485 205.531 123.428 202.88 122.991 200.046ZM144.105 192.883C141.904 191.415 138.99 191.851 137.303 193.801C136.207 194.753 135.513 196.155 135.513 197.721C135.513 198.617 135.689 199.639 135.837 200.435C136.008 201.357 136.256 202.549 136.562 204.002C137.182 206.94 138.092 211.186 139.279 217.25C140.728 224.648 141.21 235.965 141.224 250.243C141.237 264.32 140.334 280.618 139.773 289.504C139.489 294.012 139.313 296.248 139.137 297.528C139.001 298.514 138.932 298.514 138.86 298.651C137.542 301.197 138.536 304.33 141.082 305.649C143.628 306.968 146.761 305.974 148.08 303.428C149.448 300.787 149.608 298.544 150.137 290.157C150.578 283.161 151.237 271.46 151.496 259.778C153.842 258.263 157.053 256.072 160.029 254.075C163.493 251.752 166.549 249.758 168.221 248.876C170.572 247.636 172.556 246.671 174.278 245.844C175.676 245.173 177.006 244.541 178.185 243.936C179.269 243.699 180.554 243.36 181.904 242.805C182.578 243.462 183.232 244.103 183.862 244.723C194.396 255.073 197.906 259.111 201.509 263.734C203.271 265.996 206.533 266.401 208.795 264.639C211.057 262.876 211.462 259.614 209.7 257.353C205.705 252.225 201.84 247.83 191.14 237.316C189.912 236.11 188.599 234.828 187.225 233.491C186.932 232.998 186.553 232.543 186.087 232.154C185.827 231.938 185.552 231.751 185.267 231.594C174.956 221.606 161.931 209.255 154.621 202.383C146.044 194.319 145.095 193.542 144.105 192.883ZM209.09 171.669C203.939 169.314 199.054 172.037 197.539 172.768C193.432 174.749 190.767 178.411 189.889 182.1C188.833 186.532 190.182 191.38 191.422 194.789C192.715 198.346 194.488 201.815 195.136 203.235C195.649 204.362 195.872 205.3 198.094 211.929C200.734 219.808 202.961 226.799 204.761 232.305C206.464 237.517 207.943 241.927 208.991 243.926C211.85 249.375 215.585 257.573 218.562 262.509C220.908 266.4 224.51 270.78 228.291 274.411C232.69 278.635 238.276 277.758 240.908 277.193L242.259 276.903L243.287 275.98C244.547 274.85 245.384 273.283 245.925 272.153C246.548 270.852 247.161 269.283 247.766 267.568C248.968 264.159 250.289 259.727 251.725 254.719C252.322 252.951 252.741 252.073 253.135 251.472C253.498 250.917 253.99 250.366 255.086 249.475C257.31 247.665 257.647 244.395 255.838 242.171C254.029 239.947 250.759 239.61 248.534 241.419C246.968 242.693 245.605 244.017 244.447 245.786C243.326 247.499 242.565 249.376 241.849 251.509L241.812 251.619L241.779 251.731C240.329 256.795 239.07 261.003 237.973 264.115C237.502 265.45 237.088 266.502 236.733 267.291C236.601 267.29 236.475 267.285 236.358 267.272C235.885 267.222 235.67 267.101 235.483 266.922C232.234 263.802 229.247 260.121 227.453 257.146C224.625 252.456 221.593 245.595 218.187 239.102C217.652 238.083 216.493 234.777 214.631 229.079C212.864 223.672 210.595 216.552 207.939 208.629C205.967 202.744 205.398 200.713 204.585 198.93C203.65 196.878 202.289 194.289 201.181 191.24C200.018 188.044 199.697 185.736 199.99 184.505C200.168 183.757 200.845 182.702 202.05 182.121C203.162 181.585 203.792 181.298 204.359 181.162C204.593 181.106 204.713 181.106 204.749 181.107C204.767 181.108 204.762 181.108 204.771 181.112C206.517 181.911 208.525 183.553 210.567 185.689C212.551 187.765 214.241 189.955 215.476 191.556C217.227 193.826 220.487 194.247 222.758 192.496C225.028 190.745 225.449 187.485 223.698 185.214C222.482 183.636 220.485 181.037 218.074 178.515C215.721 176.053 212.626 173.286 209.09 171.669ZM246.358 70.8662C245.119 70.0449 243.782 69.9023 242.74 70.0518C241.106 70.2865 240.106 71.2315 239.988 71.3369C239.588 71.6943 239.302 72.0636 239.163 72.2578L239.073 72.3867C238.531 73.1817 238.276 73.9464 238.153 74.3555C238.089 74.5703 238.039 74.7649 238.012 74.874C237.976 75.0156 237.971 75.0389 237.962 75.0713C237.958 75.0857 237.946 75.1251 237.916 75.208C237.881 75.3023 237.84 75.4065 237.763 75.5977C237.56 76.1002 237.442 76.6169 237.401 77.1299C237.107 77.9044 236.736 78.8621 236.271 80.04C233.819 86.2407 229.083 97.719 225.945 105.296C225.504 104.175 225.086 103.131 224.702 102.194C221.576 94.5653 220.53 92.4801 219.599 91.2568C217.862 88.9761 214.603 88.5349 212.322 90.2715C210.061 91.9935 209.609 95.2091 211.294 97.4873C211.325 97.536 211.509 97.8447 211.93 98.7402C212.524 100.004 213.487 102.21 215.094 106.132C216.458 109.461 218.293 114.265 220.197 119.268C222.086 124.229 224.04 129.375 225.604 133.271C228.734 141.065 230.098 143.655 231.053 145.326L231.063 145.344C232.412 147.682 233.099 149.258 233.618 150.365C233.626 150.393 233.634 150.423 233.643 150.454C233.767 150.882 234.036 151.691 234.671 152.542C236.386 154.84 239.639 155.312 241.937 153.597C243.963 152.084 244.569 149.376 243.508 147.182C243.465 147.04 243.411 146.866 243.339 146.674L243.251 146.438L243.141 146.212L242.778 145.432C242.322 144.445 241.525 142.756 240.379 140.72L240.058 140.155C239.43 139.057 238.265 136.932 235.24 129.401C234.104 126.571 232.751 123.041 231.344 119.351C231.452 119.097 231.6 118.748 231.807 118.255C235.125 121.703 240.384 127.148 244.147 130.813C248.424 134.98 250.825 136.877 253.022 138.863C255.348 140.966 258.022 143.655 259.527 145.204C260.141 145.835 260.827 146.566 261.396 147.06C261.763 147.379 262.202 147.713 262.74 148.016C263.271 148.314 263.763 148.506 264.156 148.64C265.574 149.122 267.055 148.955 268.278 148.301C268.008 149.258 267.684 150.389 267.292 151.722C264.406 161.529 258.444 180.692 255.062 191.542C253.265 187.427 251.596 183.526 250.371 180.359C246.519 170.399 245.661 167.506 245.311 166.467C244.394 163.75 241.448 162.291 238.731 163.207C236.015 164.123 234.555 167.068 235.471 169.785C235.827 170.841 236.746 173.917 240.686 184.104C243.662 191.8 249.752 205.025 253.104 213.084C254.842 217.261 256.014 220.292 257.033 222.96C258.05 225.622 258.946 228.01 260.093 230.783L260.118 230.844L260.145 230.902C262.857 237.02 265.124 242.014 266.775 245.646C268.247 248.882 269.134 250.836 269.479 251.645C269.509 251.803 269.569 252.115 269.653 252.445C269.854 253.235 270.221 254.273 271.011 255.334C272.722 257.635 275.975 258.112 278.275 256.4C280.416 254.807 280.977 251.881 279.665 249.628C279.649 249.546 279.627 249.432 279.603 249.312C279.574 249.174 279.536 249.004 279.488 248.817L279.416 248.535L279.312 248.263L279.146 247.849C278.671 246.709 277.611 244.392 276.228 241.349C274.586 237.739 272.346 232.805 269.668 226.765C268.599 224.177 267.767 221.963 266.733 219.256C265.695 216.537 264.484 213.404 262.692 209.097C262.285 208.117 261.853 207.098 261.405 206.052C261.541 205.619 261.719 205.055 261.953 204.308C263.199 206.056 264.644 208.015 266.294 210.158C270.158 215.18 275.581 217.292 282.458 220.411C286.204 222.11 290.903 224.153 295.704 226.25C300.529 228.357 305.478 230.527 309.803 232.512C318.41 236.462 324.254 239.561 330.375 242.805C332.908 244.148 336.052 243.182 337.395 240.648C338.737 238.115 337.772 234.973 335.238 233.63C329.091 230.372 323.027 227.157 314.134 223.075C309.709 221.044 304.678 218.838 299.86 216.734C295.019 214.62 290.409 212.617 286.748 210.956C278.81 207.355 276.428 206.3 274.523 203.825C271.463 199.849 269.186 196.604 267.65 194.26C266.889 193.098 266.325 192.179 265.944 191.519C269.402 180.417 274.602 163.664 277.254 154.653C278.743 149.594 279.472 146.831 279.717 145.375C279.777 145.019 279.863 144.436 279.847 143.803C279.839 143.504 279.806 142.862 279.552 142.117C279.301 141.381 278.587 139.864 276.782 139.024C274.978 138.185 273.362 138.618 272.655 138.891C271.941 139.166 271.449 139.536 271.256 139.686C271.021 139.868 270.841 140.038 270.752 140.123C270.659 140.212 270.574 140.299 270.551 140.322C270.397 140.478 270.256 140.641 270.126 140.811C269.604 140.04 268.871 139.403 267.977 138.998C267.948 138.97 267.917 138.939 267.883 138.904C267.646 138.664 267.394 138.399 266.975 137.968C265.422 136.37 262.563 133.49 259.986 131.16C257.281 128.714 255.531 127.407 251.393 123.376C247.259 119.349 241.171 113.015 238.037 109.756C237.217 108.903 236.605 108.269 236.148 107.795C239.266 100.261 243.6 89.7472 245.928 83.8584C247.337 80.2937 248.039 78.3556 248.352 77.3047C248.431 77.0375 248.524 76.7011 248.591 76.3496C248.623 76.1798 248.672 75.8853 248.69 75.5283C248.7 75.3404 248.76 74.3735 248.316 73.2695C248.063 72.6383 247.508 71.6282 246.358 70.8662ZM148.623 210.998C154.956 216.96 164.727 226.226 173.499 234.667C172.515 235.175 171.341 235.735 169.782 236.483C168.017 237.331 165.897 238.362 163.375 239.692C161.116 240.885 157.56 243.229 154.246 245.451C153.349 246.053 152.46 246.652 151.597 247.234C151.522 234.287 151.017 223.154 149.47 215.254C149.17 213.724 148.888 212.308 148.623 210.998ZM83.7471 122.449C80.5068 122.344 77.179 123.02 75.2119 123.363C70.9662 124.104 69.0034 124.198 66.1709 124.555C63.5381 124.886 60.5411 125.413 58.8096 125.913C58.5076 126 57.4613 126.285 56.4873 126.976C55.1 127.959 54.2135 129.459 54.0332 131.177C53.9022 132.427 54.1872 133.524 54.3271 134.035C54.4964 134.654 54.7363 135.349 54.9678 136.008C55.8863 138.623 57.632 143.318 59.1602 152.25C60.7223 161.381 62.0114 174.48 62.668 181.346C63.3338 188.308 63.2982 188.346 63.2979 188.375C63.298 191.242 65.6223 193.566 68.4893 193.566C69.6977 193.566 70.8092 193.152 71.6914 192.46C71.9282 192.324 72.1578 192.168 72.377 191.991C72.4225 191.954 72.4637 191.924 72.498 191.897C72.5127 191.892 72.5283 191.887 72.543 191.882C72.7735 191.799 73.2004 191.636 73.6826 191.365L73.6836 191.366C73.8488 191.275 74.4627 191.062 75.3281 190.97C76.7576 190.817 78.9186 190.621 80.3379 190.338C81.6808 190.07 87.0273 189.094 93.0703 185.84C93.4387 185.641 94.9629 184.875 95.6523 184.486C96.6005 183.952 97.8914 183.143 98.9873 181.915C100.344 180.395 102.736 177.011 102.802 172.796C102.847 169.872 101.942 164.982 98.0068 161.911C98.0093 161.908 98.0122 161.905 98.0146 161.901C99.0453 160.536 99.4439 159.062 99.6133 157.85C99.8953 155.83 99.6614 153.046 99.5273 150.451C99.3768 147.538 99.2199 143.255 98.6416 139.206C98.0978 135.399 97.0453 130.585 94.3555 127.271C91.3165 123.528 87.1071 122.559 83.7471 122.449ZM104.361 119.323C101.494 119.324 99.1703 121.648 99.1699 124.515C99.1699 125.264 99.3096 126.06 99.4102 126.584C99.5338 127.228 99.7086 128.002 99.9297 128.886C100.374 130.66 101.04 133.027 101.951 135.963C102.483 137.677 103.141 139.266 103.748 140.672C104.39 142.157 104.922 143.321 105.41 144.564C106.384 147.044 107.15 149.452 107.84 152.251C108.54 155.092 109.137 158.254 109.473 160.48C110.451 166.961 111.177 171.252 111.478 172.829C111.651 173.741 111.965 174.709 112.123 175.24C112.315 175.884 112.502 176.563 112.666 177.445C113.098 179.771 113.944 181.928 114.72 183.306C114.72 183.306 114.77 183.397 114.824 183.488C114.885 183.59 114.985 183.751 115.119 183.937C115.403 184.329 115.843 184.835 116.494 185.284C117.843 186.214 119.23 186.316 120.027 186.297C121.357 186.264 122.891 185.815 124.39 185.331C127.715 184.258 134.151 181.839 137.534 180.603C141.024 179.327 141.356 179.274 141.486 179.241C141.912 179.135 142.19 179.066 142.477 178.995C145.259 178.303 146.955 175.486 146.263 172.703C145.57 169.921 142.753 168.226 139.971 168.918C139.684 168.989 139.406 169.058 138.981 169.164C138.261 169.343 137.474 169.569 133.969 170.851C130.888 171.977 126.027 173.798 122.753 174.927C122.527 173.838 122.281 172.969 122.074 172.275C121.796 171.343 121.723 171.124 121.678 170.885C121.416 169.511 120.714 165.381 119.74 158.931C119.362 156.425 118.706 152.949 117.922 149.766C117.127 146.54 116.224 143.693 115.075 140.768C114.502 139.309 113.815 137.793 113.28 136.554C112.711 135.235 112.233 134.054 111.869 132.884C110.997 130.073 110.388 127.9 110.004 126.364C109.811 125.594 109.683 125.019 109.607 124.626C109.571 124.436 109.554 124.325 109.547 124.278C109.423 121.521 107.149 119.323 104.361 119.323ZM71.6553 164.535C71.9368 164.644 72.1723 164.705 72.21 164.715C72.2934 164.737 72.3646 164.754 72.4053 164.764C72.5468 164.796 72.705 164.827 72.8037 164.847C73.0347 164.892 73.3901 164.958 73.7852 165.033C73.9076 165.056 74.0381 165.082 74.1748 165.108C74.4477 165.176 74.7512 165.25 75.0293 165.312C75.7094 165.466 76.4924 165.62 77.3926 165.746C78.9426 166.05 80.5425 166.238 81.8789 166.403C83.4064 166.592 84.6814 166.763 85.8438 167.029C88.1498 167.557 89.0529 168.281 91.582 170.069C91.6877 170.144 91.9123 170.364 92.1201 170.907C92.3318 171.461 92.427 172.109 92.4189 172.634C92.4158 172.835 92.3408 173.219 92.0752 173.755C91.8177 174.274 91.4835 174.725 91.2471 174.991C91.2301 175.005 91.0648 175.151 90.5537 175.439C90.2651 175.602 89.9389 175.772 89.5205 175.985C89.1293 176.185 88.6351 176.435 88.1475 176.697C83.5388 179.179 79.4722 179.922 78.3076 180.154C77.4933 180.317 76.0732 180.448 74.2256 180.646C73.8602 180.685 73.4635 180.738 73.0479 180.811C73.0338 180.663 73.0196 180.511 73.0049 180.357C72.6391 176.532 72.0593 170.578 71.3301 164.396C71.5091 164.481 71.6313 164.526 71.6553 164.535ZM151.607 111.535C148.74 111.536 146.416 113.861 146.416 116.728C146.416 116.832 146.417 116.936 146.419 117.073C146.413 117.24 146.416 117.408 146.427 117.575C146.445 118.433 146.498 120.195 146.647 124.607C146.876 131.337 147.334 144.372 147.84 153.47C148.348 162.613 148.891 167.443 149.263 170.223C149.606 172.789 149.824 173.902 150.314 175.017C150.654 175.789 151.275 176.985 152.689 178.023C155.001 179.72 158.25 179.221 159.946 176.91C161.367 174.974 161.248 172.38 159.813 170.592C159.753 170.238 159.668 169.691 159.556 168.848C159.265 166.669 158.824 162.868 158.384 155.887C159.841 155.467 161.673 154.943 163.812 154.329L163.986 154.279L164.155 154.217C165.606 153.689 166.613 153.355 167.47 153.065C171.17 159.03 172.149 160.183 173.616 162.195C174.988 164.077 177.305 167.485 179.852 170.463C181.715 172.642 184.992 172.897 187.171 171.034C189.35 169.171 189.606 165.893 187.742 163.714C185.545 161.145 183.669 158.358 182.008 156.079C180.513 154.029 179.699 153.126 175.753 146.723C173.75 143.473 171.031 138.913 168.31 134.354C165.606 129.823 162.895 125.284 160.954 122.158C158.83 118.737 157.601 116.81 156.874 115.707C156.779 115.563 156.686 115.424 156.596 115.289C155.972 113.122 153.976 111.535 151.607 111.535ZM158.917 169.717C158.921 169.72 158.926 169.724 158.93 169.728C158.898 169.703 158.866 169.676 158.833 169.652L158.917 169.717ZM193.396 99.7715C191.311 99.5705 189.016 99.5366 187.056 99.6875C186.087 99.7621 185.053 99.8926 184.105 100.124C183.633 100.239 183.063 100.408 182.484 100.667C182.003 100.883 181.171 101.311 180.413 102.108L180.263 102.273C179.241 103.436 178.658 104.768 178.296 105.763C177.918 106.802 177.63 107.917 177.394 108.887C176.874 111.019 176.519 112.733 175.902 114.356C175.621 115.097 175.246 116.032 174.993 117.066C174.72 118.184 174.611 119.284 174.552 120.6C174.285 126.543 174.529 131.735 175.603 135.223C177.476 141.305 179.702 146.12 180.824 147.87C181.418 148.795 182.666 150.3 183.949 151.846C185.37 153.556 187.185 155.722 189.281 158.303C194.432 164.643 200.216 166.622 204.22 166.568C207.989 166.517 211.35 164.687 213.672 163.604C216.629 162.224 219.174 160.819 221.104 159.532C222.06 158.895 222.959 158.224 223.707 157.541C224.265 157.032 225.435 155.912 225.999 154.311L226.228 153.663L226.278 152.978C226.432 150.938 226.407 148.871 226.118 147.489L226.112 147.461L226.105 147.434C226.019 147.04 225.935 146.7 225.865 146.419C225.174 143.636 222.358 141.94 219.575 142.631C216.793 143.322 215.097 146.137 215.787 148.92C215.851 149.177 215.899 149.375 215.946 149.584C215.95 149.627 215.974 149.834 215.983 150.239C215.985 150.304 215.985 150.373 215.985 150.443C215.802 150.577 215.59 150.728 215.344 150.892C213.959 151.814 211.9 152.972 209.282 154.193C205.933 155.756 205.053 156.172 204.079 156.186C203.568 156.192 200.697 155.888 197.341 151.756C195.198 149.118 193.327 146.886 191.937 145.211C191.234 144.365 190.667 143.677 190.235 143.138C190.02 142.869 189.854 142.656 189.73 142.491C189.621 142.345 189.572 142.276 189.563 142.264C189.562 142.262 189.559 142.255 189.553 142.245C189.545 142.232 189.533 142.213 189.52 142.189C189.491 142.14 189.453 142.074 189.406 141.989C189.313 141.818 189.195 141.591 189.056 141.31C188.776 140.746 188.431 140.001 188.047 139.099C187.278 137.294 186.374 134.918 185.526 132.167C185.014 130.503 184.666 126.845 184.925 121.063C184.97 120.051 185.037 119.711 185.08 119.533C185.144 119.273 185.226 119.055 185.61 118.042C186.524 115.636 187.079 113.002 187.482 111.345C187.608 110.829 187.719 110.401 187.822 110.043C187.832 110.042 187.843 110.042 187.853 110.041C189.161 109.94 190.854 109.958 192.399 110.107C193.607 110.224 195.082 110.559 196.373 110.959C197.005 111.155 197.519 111.343 197.868 111.489C197.958 111.527 198.027 111.558 198.074 111.58C200.267 113.076 203.278 112.679 205 110.592C206.824 108.38 206.51 105.108 204.299 103.283C203.456 102.589 202.412 102.135 201.886 101.914C201.165 101.612 200.325 101.312 199.443 101.039C197.708 100.502 195.512 99.9757 193.396 99.7715ZM83.4082 132.827C85.2 132.886 85.9019 133.334 86.293 133.815C87.0324 134.726 87.8328 136.967 88.3623 140.675C88.8572 144.14 88.9943 147.834 89.1572 150.987C89.2405 152.598 89.3149 153.731 89.3496 154.728C89.3562 154.917 89.3586 155.089 89.3613 155.242C88.7303 155.351 87.8706 155.458 86.7871 155.533C84.9368 155.662 82.9789 155.673 81.5156 155.656C80.5726 155.646 79.7707 155.583 79.084 155.496C78.0713 155.286 77.1522 155.106 76.4102 154.964C76.2405 154.921 76.0558 154.873 75.8184 154.815C75.4362 154.723 74.6197 154.524 73.7119 154.499L73.5293 154.496C73.4468 154.496 73.2051 154.496 72.9004 154.533C72.7543 154.551 72.4461 154.593 72.0693 154.703C71.8751 154.76 71.0464 154.996 70.2041 155.694C69.9446 153.884 69.6752 152.134 69.3955 150.499C68.1312 143.109 66.6989 138.26 65.6465 135.112C66.2327 135.022 66.8468 134.935 67.4668 134.857C69.7321 134.572 72.4448 134.387 76.9971 133.593C79.4287 133.168 81.4964 132.765 83.4082 132.827ZM159.393 139.674C160.251 141.112 161.118 142.56 161.964 143.975C161.603 144.101 161.213 144.24 160.791 144.393C159.73 144.697 158.738 144.982 157.829 145.242C157.699 142.342 157.578 139.338 157.467 136.455C158.098 137.51 158.745 138.588 159.393 139.674Z" fill="#1111FF"/>
</svg>
