<svg width="30" height="30" viewBox="0 0 30 30" fill="none" xmlns="http://www.w3.org/2000/svg">
<path d="M14.5254 9.44031C14.6855 8.70597 15.1934 6.7891 15.4831 5.93387C15.6436 5.46005 15.8407 4.81221 15.9689 4.19299C16.062 3.74332 16.3258 2.97676 16.5919 2.43813C16.8846 1.84567 17.4346 1.2186 17.8386 1.10759C18.041 1.05197 18.2204 0.970259 18.4048 1.01096C18.6123 1.0568 18.7748 1.2441 18.9477 1.36662C19.3874 1.67819 19.2378 2.50145 19.0998 3.10627C18.9753 3.65271 18.6847 4.06553 18.5912 4.50466C18.4922 4.96915 18.2911 5.38127 18.2561 6.09341C18.2301 6.6234 18.0375 7.10817 17.8178 7.56086C17.7073 7.78862 17.7139 8.06866 17.5642 8.2874C17.2059 8.64511 16.7 8.70021 16.0763 8.76846C15.8005 8.78244 15.3431 8.78244 14.8719 8.70021" stroke="#111111" stroke-linecap="round"/>
<path d="M15.0098 7.13968C15.4221 7.13968 16.3015 7.08541 16.798 6.90737C17.0402 6.83871 17.341 6.81075 17.6639 6.79718C17.8039 6.78361 17.8954 6.75647 18.1975 6.72852" stroke="#111111" stroke-linecap="round"/>
<path d="M15.7031 4.8356C15.9782 4.8356 16.5791 4.72706 16.9606 4.644C17.5028 4.50667 18.0122 4.4524 18.1965 4.35659C18.2894 4.31507 18.3809 4.28793 18.5444 4.17773" stroke="#111111" stroke-linecap="round"/>
<path d="M18.2687 6.64477C18.4066 6.75332 18.7289 7.1908 19.0989 7.46628C19.4412 7.72107 19.8377 7.65953 20.2192 7.618C20.6528 7.5708 21.153 7.4671 21.5937 7.37171C21.9867 7.28666 22.241 6.92107 22.4839 6.727C22.7703 6.4981 22.1273 7.574 21.8505 8.05466C21.5228 8.62358 21.0657 8.86343 20.7645 9.32928C20.3766 9.92941 19.4953 10.4259 19.1017 10.6598C18.7579 10.8641 18.363 10.893 17.9243 11.0574C17.0634 11.3802 15.6894 11.2498 14.5647 11.4546C13.7981 11.5942 13.1433 11.3321 12.6686 11.182C12.2263 11.0422 11.8017 11.0311 11.6631 10.7996C11.2358 10.0859 11.2709 9.444 10.9587 8.74419C10.7124 8.1922 10.4628 7.44243 10.1042 6.97535C9.79983 6.57892 9.58412 6.18097 9.34157 5.74184C9.11635 5.33409 8.79964 5.00174 8.37242 4.78136C7.74528 4.45785 7.22932 4.83399 6.84713 5.09508C6.51982 5.31868 6.51138 5.92933 6.13127 6.94245C5.93532 7.46472 6.04846 8.03945 6.15241 8.73926C6.22746 9.24456 6.44069 9.71208 6.71754 10.3424C7.12413 11.2681 7.38732 11.7136 7.72239 12.1392C8.01297 12.5083 8.35752 12.8649 8.69223 13.3176C9.15173 13.9391 9.58134 14.1806 10.0775 14.7694C10.8069 15.635 11.0145 16.2085 11.2109 16.7027C11.4384 17.2751 11.5231 17.6081 11.5352 17.759C11.5693 18.1829 10.7636 17.5012 10.2549 16.9671C9.87837 16.5717 9.35543 16.322 8.36271 16.116C7.71455 15.9815 7.29862 15.8829 6.6174 15.8414C6.18148 15.8148 5.77403 15.6905 4.92026 15.5404C4.43166 15.4545 4.01798 15.3895 3.64792 15.2797C3.55506 15.2521 3.46359 15.225 3.40503 15.1568C3.14941 14.8588 3.13927 14.2678 3.02319 13.8007C2.91668 13.3721 3.04502 12.8156 3.21861 12.3205C3.36632 11.8993 3.41508 11.4439 3.50759 10.8547C3.59701 10.2852 3.80731 9.74497 4.00378 9.2232C4.17472 8.76921 4.63752 8.40128 5.03114 8.12579C5.124 8.0707 5.21548 8.01642 5.30834 7.9749C5.4012 7.93337 5.49267 7.90623 5.79482 7.79604" stroke="#111111" stroke-linecap="round"/>
<path d="M9.95117 6.4801C10.1119 6.3436 10.4806 6.17913 11.0808 5.91927C11.4976 5.73879 11.9581 5.57718 12.4557 5.38434C12.9808 5.18081 13.3912 5.11009 13.8188 5.0957C14.2006 5.1915 14.5693 5.35515 14.9969 5.42464C15.1015 5.4382 15.193 5.46534 15.3565 5.57553" stroke="#111111" stroke-linecap="round"/>
<path d="M7.66262 16.2642C7.73123 16.455 8.05347 16.9468 8.37744 17.3592C8.77934 17.8708 9.18444 18.5898 9.46372 19.1543C9.69974 19.6314 9.83308 20.1539 9.97203 20.6209C10.1609 21.2557 10.4568 22.0452 10.5843 22.7307C10.6417 23.0393 10.7118 23.4703 10.6661 23.9226C10.6497 24.0845 10.5288 24.0764 10.436 24.0493C10.0523 23.9371 9.74299 23.6126 9.46545 23.2553C9.13677 22.8322 8.33483 22.9531 7.94121 22.8297C7.54614 22.7059 7.20248 22.3511 6.88993 21.94C6.47826 21.3984 5.77075 21.0897 5.37713 20.7747C4.94879 20.432 4.52336 19.9401 4.23334 19.4594C3.8996 18.9063 3.62108 18.4599 3.48213 17.8842C3.27389 16.8958 3.20459 16.5397 3.16994 16.0356C3.15816 15.6672 3.15816 15.0702 3.22746 14.4551" stroke="#111111" stroke-linecap="round"/>
<path d="M4.75391 20.377C4.82251 20.5677 5.09902 21.0595 5.42265 21.5537C5.81556 22.1537 6.25216 23.3308 6.56643 24.1572C6.82377 24.8339 7.13226 25.3636 7.34016 25.7756C7.55907 26.2094 7.94029 26.5428 8.29823 26.9676C8.70392 27.449 9.14056 27.7484 9.64922 27.942C10.1159 28.1197 10.7345 28.1332 11.1281 28.2845C11.5081 28.4306 11.8668 28.5723 12.2826 28.6274C12.6094 28.6707 13.1128 28.7648 13.6093 28.7105C13.7908 28.6907 13.8086 28.5477 13.7746 28.451C13.6174 28.0037 13.1641 27.8339 12.794 27.6961C12.4375 27.5634 12.0331 27.0412 11.5009 26.6279C11.1134 26.327 10.8079 26.0247 10.4721 25.6415C10.2986 25.2024 10.1135 24.7649 9.88311 24.3394C9.81346 24.2427 9.74485 24.1613 9.60487 23.8308" stroke="#111111" stroke-linecap="round"/>
<path d="M14.1113 28.439C14.5244 28.439 15.3559 28.3848 16.5209 28.3432C17.05 28.3244 17.4128 28.1923 17.8972 28.0558C18.8213 27.7954 19.2603 27.9456 19.6539 27.8774C20.0245 27.8131 20.4384 27.5904 20.8781 27.289C21.0624 27.1627 21.202 27.0411 21.3063 26.9597C21.7852 26.5859 20.7197 25.727 20.5912 25.2887C20.416 24.6913 20.1418 24.2747 19.8067 23.5219C19.3557 22.5086 18.6865 21.3702 18.34 20.6569C17.9023 19.7933 17.3605 18.082 18.6951 18.1455C19.1608 18.3996 19.8369 18.5151 20.2776 18.7758C20.6612 19.0026 21.1549 19.2272 21.605 19.529C22.4064 20.0664 23.0246 20.1877 23.5801 20.2839C24.3368 20.415 24.9428 19.9969 25.3365 19.8872C25.7138 19.7819 26.2124 19.2601 26.5038 18.7371C26.7159 18.3565 26.7003 17.8062 26.7353 17.3256C26.7751 16.7787 26.9317 15.5925 26.9892 14.7356C27.039 13.994 26.6559 13.5021 26.2176 13.0083C25.7594 12.4921 25.2478 12.2686 24.8541 11.9796C24.4447 11.6789 23.9311 11.4726 23.526 11.3896C23.0828 11.2987 21.8604 11.17 21.0427 10.9517C20.6726 10.8139 20.4183 10.6774 20.2686 10.5269C20.1875 10.4578 20.096 10.4036 20.0018 10.3477" stroke="#111111" stroke-linecap="round"/>
<path d="M16.4405 13.4431C16.532 13.2795 16.9007 13.0057 17.339 12.6767C17.8055 12.3267 18.3338 12.6751 18.5067 12.8116C18.6898 12.9561 18.7503 13.2228 18.7735 13.4415C18.8205 13.8847 18.5666 14.3181 18.3012 14.6754C18.019 15.0553 17.2998 15.0056 16.7999 14.8831C16.5563 14.4859 16.4641 14.1569 16.3834 13.9382C16.3484 13.828 16.3255 13.7195 16.5098 13.4431" stroke="#111111" stroke-linecap="round"/>
<path d="M22.7715 16.4297C22.9323 16.484 23.5754 16.9198 24.0868 17.1829C24.4568 17.3614 25.3744 17.4165 26.0847 17.4983C26.1893 17.5259 26.2808 17.553 26.5137 17.581" stroke="#111111" stroke-linecap="round"/>
<path d="M24.9922 14.6195C25.0151 14.6195 25.0379 14.6195 25.0726 14.6738C25.1072 14.7281 25.153 14.8366 25.1765 14.8383C25.2001 14.8399 25.2001 14.7314 25.0615 14.4551" stroke="#111111" stroke-linecap="round"/>
</svg>
